<mxfile host="Electron" agent="Mozilla/5.0 (Windows NT 10.0; Win64; x64) AppleWebKit/537.36 (KHTML, like Gecko) draw.io/27.0.9 Chrome/134.0.6998.205 Electron/35.4.0 Safari/537.36" version="27.0.9" pages="2">
  <diagram name="Page-1" id="bPU3dqtlK6oN1SiVFn8i">
    <mxGraphModel dx="2837" dy="1287" grid="1" gridSize="10" guides="1" tooltips="1" connect="1" arrows="1" fold="1" page="0" pageScale="1" pageWidth="850" pageHeight="1100" math="0" shadow="0">
      <root>
        <mxCell id="0" />
        <mxCell id="1" parent="0" />
        <mxCell id="npgMnpnXtEW9ah2AVBNS-9" value="" style="rounded=0;whiteSpace=wrap;html=1;fillColor=none;strokeColor=default;dashed=1;" vertex="1" parent="1">
          <mxGeometry x="-760" y="240" width="1400" height="640" as="geometry" />
        </mxCell>
        <mxCell id="sMY1iV93VGYx4es_i70f-1" value="" style="rounded=0;whiteSpace=wrap;html=1;rotation=90;fillColor=none;strokeColor=default;" parent="1" vertex="1">
          <mxGeometry x="-840" y="520" width="440" height="200" as="geometry" />
        </mxCell>
        <mxCell id="sMY1iV93VGYx4es_i70f-2" value="&lt;font style=&quot;font-size: 24px;&quot;&gt;Sources&lt;/font&gt;" style="rounded=0;whiteSpace=wrap;html=1;fillColor=default;" parent="1" vertex="1">
          <mxGeometry x="-720" y="300" width="200" height="90" as="geometry" />
        </mxCell>
        <mxCell id="sMY1iV93VGYx4es_i70f-3" value="&lt;font style=&quot;font-size: 20px;&quot;&gt;CRM&lt;/font&gt;" style="image;aspect=fixed;html=1;points=[];align=center;fontSize=12;image=img/lib/azure2/general/Folder_Blank.svg;" parent="1" vertex="1">
          <mxGeometry x="-644.64" y="505" width="49.29" height="40" as="geometry" />
        </mxCell>
        <mxCell id="sMY1iV93VGYx4es_i70f-4" value="&lt;font style=&quot;font-size: 20px;&quot;&gt;ERP&lt;/font&gt;" style="image;aspect=fixed;html=1;points=[];align=center;fontSize=12;image=img/lib/azure2/general/Folder_Blank.svg;" parent="1" vertex="1">
          <mxGeometry x="-644.64" y="705" width="49.29" height="40" as="geometry" />
        </mxCell>
        <mxCell id="sMY1iV93VGYx4es_i70f-5" value="" style="rounded=1;whiteSpace=wrap;html=1;rotation=90;fillColor=#fad7ac;strokeColor=#b46504;gradientColor=none;" parent="1" vertex="1">
          <mxGeometry x="-480" y="520" width="440" height="200" as="geometry" />
        </mxCell>
        <mxCell id="yZkg2u6ZBUJl6wnw4X8U-1" value="" style="rounded=1;whiteSpace=wrap;html=1;rotation=90;fillColor=#eeeeee;strokeColor=#36393d;" parent="1" vertex="1">
          <mxGeometry x="-150" y="520" width="440" height="200" as="geometry" />
        </mxCell>
        <mxCell id="yZkg2u6ZBUJl6wnw4X8U-17" value="" style="rounded=1;whiteSpace=wrap;html=1;rotation=90;fillColor=#ffff88;strokeColor=#36393d;" parent="1" vertex="1">
          <mxGeometry x="260" y="520" width="440" height="200" as="geometry" />
        </mxCell>
        <mxCell id="sMY1iV93VGYx4es_i70f-6" value="&lt;font style=&quot;font-size: 24px; color: rgb(0, 0, 0);&quot;&gt;&lt;b&gt;Bronze Layer&lt;/b&gt;&lt;/font&gt;" style="rounded=1;whiteSpace=wrap;html=1;fillColor=#fad7ac;strokeColor=#b46504;gradientColor=none;" parent="1" vertex="1">
          <mxGeometry x="-360" y="300" width="200" height="90" as="geometry" />
        </mxCell>
        <mxCell id="yZkg2u6ZBUJl6wnw4X8U-2" value="&lt;font style=&quot;font-size: 24px; color: rgb(0, 0, 0);&quot;&gt;&lt;b&gt;Silver Layer&lt;/b&gt;&lt;/font&gt;" style="rounded=1;whiteSpace=wrap;html=1;fillColor=#eeeeee;strokeColor=#36393d;" parent="1" vertex="1">
          <mxGeometry x="-30" y="300" width="200" height="90" as="geometry" />
        </mxCell>
        <mxCell id="yZkg2u6ZBUJl6wnw4X8U-18" value="&lt;font style=&quot;font-size: 24px; color: rgb(0, 0, 0);&quot;&gt;&lt;b&gt;Gold Layer&lt;/b&gt;&lt;/font&gt;" style="rounded=1;whiteSpace=wrap;html=1;fillColor=#ffff88;strokeColor=#36393d;" parent="1" vertex="1">
          <mxGeometry x="380" y="300" width="200" height="90" as="geometry" />
        </mxCell>
        <mxCell id="yZkg2u6ZBUJl6wnw4X8U-13" style="edgeStyle=orthogonalEdgeStyle;rounded=0;orthogonalLoop=1;jettySize=auto;html=1;strokeWidth=4;" parent="1" source="-bjSJgygRRvtvkBFryMv-1" target="yZkg2u6ZBUJl6wnw4X8U-3" edge="1">
          <mxGeometry relative="1" as="geometry" />
        </mxCell>
        <mxCell id="-bjSJgygRRvtvkBFryMv-1" value="&lt;font style=&quot;color: rgb(0, 0, 0); font-size: 20px;&quot;&gt;crm_cust_info&lt;/font&gt;" style="rounded=1;whiteSpace=wrap;html=1;fillColor=#fad7ac;strokeColor=#b46504;gradientColor=none;" parent="1" vertex="1">
          <mxGeometry x="-340" y="440" width="160" height="50" as="geometry" />
        </mxCell>
        <mxCell id="yZkg2u6ZBUJl6wnw4X8U-3" value="&lt;font style=&quot;color: rgb(0, 0, 0); font-size: 20px;&quot;&gt;crm_cust_info&lt;/font&gt;" style="rounded=1;whiteSpace=wrap;html=1;fillColor=#eeeeee;strokeColor=#36393d;" parent="1" vertex="1">
          <mxGeometry x="-10" y="440" width="160" height="50" as="geometry" />
        </mxCell>
        <mxCell id="yZkg2u6ZBUJl6wnw4X8U-19" value="&lt;font style=&quot;color: rgb(0, 0, 0); font-size: 20px;&quot;&gt;fact_sales&lt;/font&gt;" style="rounded=1;whiteSpace=wrap;html=1;fillColor=#ffff88;strokeColor=#36393d;" parent="1" vertex="1">
          <mxGeometry x="410" y="450" width="160" height="50" as="geometry" />
        </mxCell>
        <mxCell id="-bjSJgygRRvtvkBFryMv-2" value="&lt;font style=&quot;color: rgb(0, 0, 0); font-size: 20px;&quot;&gt;crm_prd_info&lt;/font&gt;" style="rounded=1;whiteSpace=wrap;html=1;fillColor=#fad7ac;strokeColor=#b46504;gradientColor=none;" parent="1" vertex="1">
          <mxGeometry x="-340" y="500" width="160" height="50" as="geometry" />
        </mxCell>
        <mxCell id="yZkg2u6ZBUJl6wnw4X8U-4" value="&lt;font style=&quot;color: rgb(0, 0, 0); font-size: 20px;&quot;&gt;crm_prd_info&lt;/font&gt;" style="rounded=1;whiteSpace=wrap;html=1;fillColor=#eeeeee;strokeColor=#36393d;" parent="1" vertex="1">
          <mxGeometry x="-10" y="500" width="160" height="50" as="geometry" />
        </mxCell>
        <mxCell id="yZkg2u6ZBUJl6wnw4X8U-20" value="&lt;font style=&quot;color: rgb(0, 0, 0); font-size: 20px;&quot;&gt;dim_customers&lt;/font&gt;" style="rounded=1;whiteSpace=wrap;html=1;fillColor=#ffff88;strokeColor=#36393d;" parent="1" vertex="1">
          <mxGeometry x="400" y="730" width="160" height="50" as="geometry" />
        </mxCell>
        <mxCell id="-bjSJgygRRvtvkBFryMv-3" value="&lt;font style=&quot;color: rgb(0, 0, 0); font-size: 20px;&quot;&gt;crm_sales_details&lt;/font&gt;" style="rounded=1;whiteSpace=wrap;html=1;fillColor=#fad7ac;strokeColor=#b46504;gradientColor=none;" parent="1" vertex="1">
          <mxGeometry x="-340" y="560" width="160" height="50" as="geometry" />
        </mxCell>
        <mxCell id="yZkg2u6ZBUJl6wnw4X8U-5" value="&lt;font style=&quot;color: rgb(0, 0, 0); font-size: 20px;&quot;&gt;crm_sales_details&lt;/font&gt;" style="rounded=1;whiteSpace=wrap;html=1;fillColor=#eeeeee;strokeColor=#36393d;" parent="1" vertex="1">
          <mxGeometry x="-10" y="560" width="160" height="50" as="geometry" />
        </mxCell>
        <mxCell id="yZkg2u6ZBUJl6wnw4X8U-21" value="&lt;font style=&quot;color: rgb(0, 0, 0); font-size: 20px;&quot;&gt;dim_products&lt;/font&gt;" style="rounded=1;whiteSpace=wrap;html=1;fillColor=#ffff88;strokeColor=#36393d;" parent="1" vertex="1">
          <mxGeometry x="400" y="600" width="160" height="50" as="geometry" />
        </mxCell>
        <mxCell id="-bjSJgygRRvtvkBFryMv-8" style="edgeStyle=orthogonalEdgeStyle;rounded=0;orthogonalLoop=1;jettySize=auto;html=1;entryX=0;entryY=0.5;entryDx=0;entryDy=0;strokeWidth=2;" parent="1" source="sMY1iV93VGYx4es_i70f-3" target="-bjSJgygRRvtvkBFryMv-2" edge="1">
          <mxGeometry relative="1" as="geometry">
            <mxPoint x="-361" y="525" as="targetPoint" />
          </mxGeometry>
        </mxCell>
        <mxCell id="-bjSJgygRRvtvkBFryMv-9" style="edgeStyle=orthogonalEdgeStyle;rounded=0;orthogonalLoop=1;jettySize=auto;html=1;entryX=0;entryY=0.5;entryDx=0;entryDy=0;strokeWidth=2;" parent="1" source="sMY1iV93VGYx4es_i70f-3" target="-bjSJgygRRvtvkBFryMv-3" edge="1">
          <mxGeometry relative="1" as="geometry" />
        </mxCell>
        <mxCell id="-bjSJgygRRvtvkBFryMv-10" style="edgeStyle=orthogonalEdgeStyle;rounded=0;orthogonalLoop=1;jettySize=auto;html=1;entryX=0;entryY=0.5;entryDx=0;entryDy=0;strokeWidth=2;" parent="1" source="sMY1iV93VGYx4es_i70f-3" target="-bjSJgygRRvtvkBFryMv-1" edge="1">
          <mxGeometry relative="1" as="geometry" />
        </mxCell>
        <mxCell id="yZkg2u6ZBUJl6wnw4X8U-14" style="edgeStyle=orthogonalEdgeStyle;rounded=0;orthogonalLoop=1;jettySize=auto;html=1;entryX=0;entryY=0.5;entryDx=0;entryDy=0;strokeWidth=4;" parent="1" source="-bjSJgygRRvtvkBFryMv-13" target="yZkg2u6ZBUJl6wnw4X8U-6" edge="1">
          <mxGeometry relative="1" as="geometry" />
        </mxCell>
        <mxCell id="-bjSJgygRRvtvkBFryMv-13" value="&lt;font style=&quot;color: rgb(0, 0, 0); font-size: 20px;&quot;&gt;erp_cust_az12&lt;/font&gt;" style="rounded=1;whiteSpace=wrap;html=1;fillColor=#fad7ac;strokeColor=#b46504;gradientColor=none;" parent="1" vertex="1">
          <mxGeometry x="-340" y="640" width="160" height="50" as="geometry" />
        </mxCell>
        <mxCell id="yZkg2u6ZBUJl6wnw4X8U-6" value="&lt;font style=&quot;color: rgb(0, 0, 0); font-size: 20px;&quot;&gt;erp_cust_az12&lt;/font&gt;" style="rounded=1;whiteSpace=wrap;html=1;fillColor=#eeeeee;strokeColor=#36393d;" parent="1" vertex="1">
          <mxGeometry x="-10" y="640" width="160" height="50" as="geometry" />
        </mxCell>
        <mxCell id="yZkg2u6ZBUJl6wnw4X8U-15" style="edgeStyle=orthogonalEdgeStyle;rounded=0;orthogonalLoop=1;jettySize=auto;html=1;entryX=0;entryY=0.5;entryDx=0;entryDy=0;strokeWidth=4;" parent="1" source="-bjSJgygRRvtvkBFryMv-14" target="yZkg2u6ZBUJl6wnw4X8U-7" edge="1">
          <mxGeometry relative="1" as="geometry" />
        </mxCell>
        <mxCell id="-bjSJgygRRvtvkBFryMv-14" value="&lt;font style=&quot;color: rgb(0, 0, 0); font-size: 20px;&quot;&gt;erp_loc_a101&lt;/font&gt;" style="rounded=1;whiteSpace=wrap;html=1;fillColor=#fad7ac;strokeColor=#b46504;gradientColor=none;" parent="1" vertex="1">
          <mxGeometry x="-340" y="700" width="160" height="50" as="geometry" />
        </mxCell>
        <mxCell id="yZkg2u6ZBUJl6wnw4X8U-7" value="&lt;font style=&quot;color: rgb(0, 0, 0); font-size: 20px;&quot;&gt;erp_loc_a101&lt;/font&gt;" style="rounded=1;whiteSpace=wrap;html=1;fillColor=#eeeeee;strokeColor=#36393d;" parent="1" vertex="1">
          <mxGeometry x="-10" y="700" width="160" height="50" as="geometry" />
        </mxCell>
        <mxCell id="yZkg2u6ZBUJl6wnw4X8U-16" style="edgeStyle=orthogonalEdgeStyle;rounded=0;orthogonalLoop=1;jettySize=auto;html=1;entryX=0;entryY=0.5;entryDx=0;entryDy=0;strokeWidth=3;" parent="1" source="-bjSJgygRRvtvkBFryMv-15" target="yZkg2u6ZBUJl6wnw4X8U-8" edge="1">
          <mxGeometry relative="1" as="geometry" />
        </mxCell>
        <mxCell id="-bjSJgygRRvtvkBFryMv-15" value="&lt;font style=&quot;color: rgb(0, 0, 0); font-size: 20px;&quot;&gt;erp_px_cat_g1v2&lt;/font&gt;" style="rounded=1;whiteSpace=wrap;html=1;fillColor=#fad7ac;strokeColor=#b46504;gradientColor=none;" parent="1" vertex="1">
          <mxGeometry x="-340" y="760" width="160" height="50" as="geometry" />
        </mxCell>
        <mxCell id="yZkg2u6ZBUJl6wnw4X8U-8" value="&lt;font style=&quot;color: rgb(0, 0, 0); font-size: 20px;&quot;&gt;erp_px_cat_g1v2&lt;/font&gt;" style="rounded=1;whiteSpace=wrap;html=1;fillColor=#eeeeee;strokeColor=#36393d;" parent="1" vertex="1">
          <mxGeometry x="-10" y="760" width="160" height="50" as="geometry" />
        </mxCell>
        <mxCell id="-bjSJgygRRvtvkBFryMv-16" style="edgeStyle=orthogonalEdgeStyle;rounded=0;orthogonalLoop=1;jettySize=auto;html=1;entryX=0;entryY=0.5;entryDx=0;entryDy=0;strokeWidth=2;" parent="1" source="sMY1iV93VGYx4es_i70f-4" target="-bjSJgygRRvtvkBFryMv-14" edge="1">
          <mxGeometry relative="1" as="geometry">
            <mxPoint x="-340" y="785" as="targetPoint" />
          </mxGeometry>
        </mxCell>
        <mxCell id="-bjSJgygRRvtvkBFryMv-17" style="edgeStyle=orthogonalEdgeStyle;rounded=0;orthogonalLoop=1;jettySize=auto;html=1;strokeWidth=2;entryX=0;entryY=0.5;entryDx=0;entryDy=0;" parent="1" source="sMY1iV93VGYx4es_i70f-4" target="-bjSJgygRRvtvkBFryMv-13" edge="1">
          <mxGeometry relative="1" as="geometry">
            <mxPoint x="-380" y="720" as="targetPoint" />
          </mxGeometry>
        </mxCell>
        <mxCell id="-bjSJgygRRvtvkBFryMv-20" style="edgeStyle=orthogonalEdgeStyle;rounded=0;orthogonalLoop=1;jettySize=auto;html=1;entryX=0;entryY=0.5;entryDx=0;entryDy=0;strokeWidth=2;" parent="1" source="sMY1iV93VGYx4es_i70f-4" target="-bjSJgygRRvtvkBFryMv-15" edge="1">
          <mxGeometry relative="1" as="geometry" />
        </mxCell>
        <mxCell id="-bjSJgygRRvtvkBFryMv-23" value="&lt;b style=&quot;&quot;&gt;&lt;font style=&quot;font-size: 40px;&quot;&gt;Data Flow Diagram&lt;/font&gt;&lt;/b&gt;" style="rounded=0;whiteSpace=wrap;html=1;align=left;strokeColor=none;" parent="1" vertex="1">
          <mxGeometry x="-300" y="200" width="400" height="80" as="geometry" />
        </mxCell>
        <mxCell id="yZkg2u6ZBUJl6wnw4X8U-10" style="edgeStyle=orthogonalEdgeStyle;rounded=0;orthogonalLoop=1;jettySize=auto;html=1;entryX=0;entryY=0.5;entryDx=0;entryDy=0;strokeWidth=4;" parent="1" source="-bjSJgygRRvtvkBFryMv-2" target="yZkg2u6ZBUJl6wnw4X8U-4" edge="1">
          <mxGeometry relative="1" as="geometry" />
        </mxCell>
        <mxCell id="yZkg2u6ZBUJl6wnw4X8U-11" style="edgeStyle=orthogonalEdgeStyle;rounded=0;orthogonalLoop=1;jettySize=auto;html=1;entryX=0;entryY=0.5;entryDx=0;entryDy=0;strokeWidth=4;" parent="1" source="-bjSJgygRRvtvkBFryMv-3" target="yZkg2u6ZBUJl6wnw4X8U-5" edge="1">
          <mxGeometry relative="1" as="geometry" />
        </mxCell>
        <mxCell id="npgMnpnXtEW9ah2AVBNS-1" value="" style="endArrow=classic;html=1;rounded=0;fontSize=12;startSize=8;endSize=8;curved=1;exitX=1;exitY=0.5;exitDx=0;exitDy=0;entryX=0;entryY=0.5;entryDx=0;entryDy=0;strokeWidth=2;flowAnimation=0;shadow=0;noJump=0;orthogonalLoop=0;" edge="1" parent="1" source="yZkg2u6ZBUJl6wnw4X8U-3" target="yZkg2u6ZBUJl6wnw4X8U-20">
          <mxGeometry width="50" height="50" relative="1" as="geometry">
            <mxPoint x="130" y="460" as="sourcePoint" />
            <mxPoint x="180" y="410" as="targetPoint" />
          </mxGeometry>
        </mxCell>
        <mxCell id="npgMnpnXtEW9ah2AVBNS-4" value="" style="endArrow=classic;html=1;rounded=0;fontSize=12;startSize=8;endSize=8;curved=1;exitX=1;exitY=0.5;exitDx=0;exitDy=0;entryX=0;entryY=0.5;entryDx=0;entryDy=0;strokeWidth=2;flowAnimation=0;shadow=0;noJump=0;orthogonalLoop=0;" edge="1" parent="1" source="yZkg2u6ZBUJl6wnw4X8U-6" target="yZkg2u6ZBUJl6wnw4X8U-20">
          <mxGeometry width="50" height="50" relative="1" as="geometry">
            <mxPoint x="140" y="690" as="sourcePoint" />
            <mxPoint x="190" y="640" as="targetPoint" />
          </mxGeometry>
        </mxCell>
        <mxCell id="npgMnpnXtEW9ah2AVBNS-5" value="" style="endArrow=classic;html=1;rounded=0;fontSize=12;startSize=8;endSize=8;curved=1;exitX=1;exitY=0.5;exitDx=0;exitDy=0;entryX=0;entryY=0.5;entryDx=0;entryDy=0;strokeWidth=2;flowAnimation=0;shadow=0;noJump=0;orthogonalLoop=0;" edge="1" parent="1" source="yZkg2u6ZBUJl6wnw4X8U-7" target="yZkg2u6ZBUJl6wnw4X8U-20">
          <mxGeometry width="50" height="50" relative="1" as="geometry">
            <mxPoint x="140" y="710" as="sourcePoint" />
            <mxPoint x="190" y="660" as="targetPoint" />
          </mxGeometry>
        </mxCell>
        <mxCell id="npgMnpnXtEW9ah2AVBNS-6" value="" style="endArrow=classic;html=1;rounded=0;fontSize=12;startSize=8;endSize=8;curved=1;exitX=1;exitY=0.5;exitDx=0;exitDy=0;entryX=0;entryY=0.5;entryDx=0;entryDy=0;strokeWidth=2;flowAnimation=0;shadow=0;noJump=0;orthogonalLoop=0;" edge="1" parent="1" source="yZkg2u6ZBUJl6wnw4X8U-5" target="yZkg2u6ZBUJl6wnw4X8U-19">
          <mxGeometry width="50" height="50" relative="1" as="geometry">
            <mxPoint x="130" y="590" as="sourcePoint" />
            <mxPoint x="180" y="540" as="targetPoint" />
          </mxGeometry>
        </mxCell>
        <mxCell id="npgMnpnXtEW9ah2AVBNS-7" value="" style="endArrow=classic;html=1;rounded=0;fontSize=12;startSize=8;endSize=8;curved=1;exitX=1;exitY=0.5;exitDx=0;exitDy=0;strokeWidth=2;entryX=0;entryY=0.5;entryDx=0;entryDy=0;flowAnimation=0;shadow=0;noJump=0;orthogonalLoop=0;" edge="1" parent="1" source="yZkg2u6ZBUJl6wnw4X8U-4" target="yZkg2u6ZBUJl6wnw4X8U-21">
          <mxGeometry width="50" height="50" relative="1" as="geometry">
            <mxPoint x="140" y="530" as="sourcePoint" />
            <mxPoint x="220" y="630" as="targetPoint" />
          </mxGeometry>
        </mxCell>
        <mxCell id="npgMnpnXtEW9ah2AVBNS-8" value="" style="endArrow=classic;html=1;rounded=0;fontSize=12;startSize=8;endSize=8;curved=1;exitX=1;exitY=0.5;exitDx=0;exitDy=0;entryX=0;entryY=0.5;entryDx=0;entryDy=0;strokeWidth=2;flowAnimation=0;shadow=0;noJump=0;orthogonalLoop=0;" edge="1" parent="1" source="yZkg2u6ZBUJl6wnw4X8U-8" target="yZkg2u6ZBUJl6wnw4X8U-21">
          <mxGeometry width="50" height="50" relative="1" as="geometry">
            <mxPoint x="120" y="790" as="sourcePoint" />
            <mxPoint x="170" y="740" as="targetPoint" />
          </mxGeometry>
        </mxCell>
        <mxCell id="npgMnpnXtEW9ah2AVBNS-10" style="edgeStyle=none;curved=1;rounded=0;orthogonalLoop=1;jettySize=auto;html=1;exitX=0.5;exitY=0;exitDx=0;exitDy=0;fontSize=12;startSize=8;endSize=8;" edge="1" parent="1" source="npgMnpnXtEW9ah2AVBNS-9" target="npgMnpnXtEW9ah2AVBNS-9">
          <mxGeometry relative="1" as="geometry" />
        </mxCell>
      </root>
    </mxGraphModel>
  </diagram>
  <diagram id="4qQccYWiTgrFr3icXd7z" name="Page-2">
    <mxGraphModel dx="1896" dy="903" grid="1" gridSize="10" guides="1" tooltips="1" connect="1" arrows="1" fold="1" page="0" pageScale="1" pageWidth="850" pageHeight="1100" math="0" shadow="0">
      <root>
        <mxCell id="0" />
        <mxCell id="1" parent="0" />
      </root>
    </mxGraphModel>
  </diagram>
</mxfile>
